<svg width="32" height="32" viewBox="0 0 32 32" fill="none" xmlns="http://www.w3.org/2000/svg">
<rect width="32" height="32" rx="6" fill="#EEEEEE"/>
<path fill-rule="evenodd" clip-rule="evenodd" d="M19 12.25H22C22.825 12.25 23.5 12.925 23.5 13.75V22C23.5 22.825 22.825 23.5 22 23.5H10C9.175 23.5 8.5 22.825 8.5 22V13.75C8.5 12.925 9.175 12.25 10 12.25H13V10.75C13 9.925 13.675 9.25 14.5 9.25H17.5C17.9125 9.25 18.2875 9.415 18.5575 9.6925C18.835 9.9625 19 10.3375 19 10.75V12.25ZM17.5 10.75H14.5V12.25H17.5V10.75Z" fill="black" fill-opacity="0.54"/>
</svg>
